<?xml version="1.0" encoding="UTF-8"?><svg id="a" xmlns="http://www.w3.org/2000/svg" viewBox="0 0 314.23 48.61"><defs><style>.b{fill:#f1064b;}.c{fill:#fff;}</style></defs><path class="c" d="M4.44,45.09c-2.96-2.31-4.44-5.38-4.44-9.22v-2.1c0-.45,.23-.68,.68-.68H4c.45,0,.68,.23,.68,.68v1.83c0,2.62,1.08,4.74,3.25,6.34,2.17,1.61,5.17,2.41,9.02,2.41,3.48,0,6.12-.73,7.93-2.2,1.81-1.47,2.71-3.42,2.71-5.86,0-1.58-.42-2.94-1.25-4.07-.84-1.13-2.13-2.19-3.86-3.19-1.74-.99-4.19-2.15-7.36-3.46-3.39-1.36-6.02-2.54-7.9-3.56-1.88-1.02-3.39-2.33-4.54-3.93-1.15-1.6-1.73-3.63-1.73-6.07,0-3.8,1.32-6.75,3.97-8.85C7.56,1.05,11.19,0,15.8,0c5.02,0,8.97,1.18,11.86,3.53,2.89,2.35,4.34,5.47,4.34,9.36v1.49c0,.45-.23,.68-.68,.68h-3.39c-.45,0-.68-.23-.68-.68v-1.22c0-2.62-1.03-4.77-3.08-6.44-2.06-1.67-4.92-2.51-8.58-2.51-3.21,0-5.67,.66-7.39,1.97-1.72,1.31-2.58,3.21-2.58,5.7,0,1.63,.42,2.97,1.25,4.03,.84,1.06,2.03,1.99,3.59,2.78,1.56,.79,3.97,1.82,7.22,3.08,3.3,1.36,5.95,2.62,7.97,3.8,2.01,1.18,3.64,2.61,4.88,4.31,1.24,1.7,1.86,3.76,1.86,6.2,0,3.8-1.4,6.82-4.2,9.08-2.8,2.26-6.69,3.39-11.66,3.39s-9.14-1.15-12.1-3.46Z"/><path class="c" d="M46.92,47.32V1.22c0-.45,.23-.68,.68-.68h3.46c.45,0,.68,.23,.68,.68V47.32c0,.45-.23,.68-.68,.68h-3.46c-.45,0-.68-.23-.68-.68Z"/><path class="c" d="M68.95,47.32V1.22c0-.45,.23-.68,.68-.68h3.46c.45,0,.68,.23,.68,.68V43.53c0,.18,.09,.27,.27,.27h23.93c.45,0,.68,.23,.68,.68v2.85c0,.45-.23,.68-.68,.68h-28.34c-.45,0-.68-.23-.68-.68Z"/><path class="c" d="M141.97,4.75h-24.95c-.18,0-.27,.09-.27,.27V21.76c0,.18,.09,.27,.27,.27h17.49c.45,0,.68,.23,.68,.68v2.85c0,.45-.23,.68-.68,.68h-17.49c-.18,0-.27,.09-.27,.27v17.02c0,.18,.09,.27,.27,.27h24.95c.45,0,.68,.23,.68,.68v2.85c0,.45-.23,.68-.68,.68h-29.36c-.45,0-.68-.23-.68-.68V1.22c0-.45,.23-.68,.68-.68h29.36c.45,0,.68,.23,.68,.68v2.85c0,.45-.23,.68-.68,.68Z"/><path class="c" d="M186.37,.54h3.46c.45,0,.68,.23,.68,.68V47.32c0,.45-.23,.68-.68,.68h-3.39c-.32,0-.59-.16-.81-.47l-23.12-37.63c-.05-.14-.11-.19-.2-.17-.09,.02-.14,.1-.14,.24l.07,37.36c0,.45-.23,.68-.68,.68h-3.46c-.45,0-.68-.23-.68-.68V1.22c0-.45,.23-.68,.68-.68h3.39c.32,0,.59,.16,.81,.47l23.12,37.63c.04,.14,.11,.19,.2,.17,.09-.02,.14-.1,.14-.24l-.07-37.36c0-.45,.23-.68,.68-.68Z"/><path class="c" d="M213.83,46.75c-2.4-1.24-4.26-3.01-5.59-5.29-1.33-2.28-2-4.92-2-7.9V14.92c0-2.94,.67-5.54,2-7.8,1.33-2.26,3.2-4.01,5.59-5.25,2.4-1.24,5.17-1.86,8.34-1.86s5.94,.61,8.34,1.83c2.4,1.22,4.26,2.94,5.59,5.15,1.33,2.22,2,4.77,2,7.66,0,.23-.07,.41-.2,.54s-.29,.2-.47,.2l-3.46,.2c-.45,0-.68-.2-.68-.61v-.2c0-3.21-1.02-5.77-3.05-7.7-2.03-1.92-4.72-2.88-8.07-2.88s-6.03,.97-8.07,2.91c-2.03,1.94-3.05,4.5-3.05,7.66v18.98c0,3.16,1.02,5.72,3.05,7.66,2.03,1.94,4.72,2.91,8.07,2.91s6.03-.96,8.07-2.88c2.03-1.92,3.05-4.49,3.05-7.7v-.14c0-.41,.23-.61,.68-.61l3.46,.2c.45,0,.68,.2,.68,.61,0,2.94-.67,5.53-2,7.76-1.33,2.24-3.2,3.97-5.59,5.19-2.4,1.22-5.18,1.83-8.34,1.83s-5.94-.62-8.34-1.86Z"/><path class="c" d="M289.55,46.58c-2.44-1.31-4.33-3.15-5.66-5.53-1.33-2.37-2-5.12-2-8.24V15.73c0-3.12,.67-5.86,2-8.24,1.33-2.37,3.22-4.21,5.66-5.53,2.44-1.31,5.26-1.97,8.47-1.97s6.04,.66,8.51,1.97c2.46,1.31,4.36,3.15,5.7,5.53,1.33,2.37,2,5.12,2,8.24v17.08c0,3.12-.67,5.86-2,8.24-1.33,2.37-3.23,4.21-5.7,5.53-2.46,1.31-5.3,1.97-8.51,1.97s-6.03-.65-8.47-1.97Zm16.75-5.29c2.08-2.08,3.12-4.84,3.12-8.27V15.66c0-3.43-1.04-6.2-3.12-8.3-2.08-2.1-4.84-3.15-8.27-3.15s-6.13,1.05-8.2,3.15c-2.08,2.1-3.12,4.87-3.12,8.3v17.36c0,3.43,1.04,6.19,3.12,8.27,2.08,2.08,4.81,3.12,8.2,3.12s6.19-1.04,8.27-3.12Z"/><g><path class="b" d="M246.47,47.25L261.46,1.08c.14-.36,.41-.54,.81-.54h3.39c.5,0,.68,.25,.54,.75l-14.98,46.17c-.14,.36-.41,.54-.81,.54h-3.39c-.5,0-.68-.25-.54-.75Z"/><path class="b" d="M254.81,47.25L269.79,1.08c.14-.36,.41-.54,.81-.54h3.39c.5,0,.68,.25,.54,.75l-14.98,46.17c-.14,.36-.41,.54-.81,.54h-3.39c-.5,0-.68-.25-.54-.75Z"/></g></svg>